<svg xmlns="http://www.w3.org/2000/svg" xmlns:xlink="http://www.w3.org/1999/xlink" width="108" zoomAndPan="magnify" viewBox="0 0 81 30.000001" height="40" preserveAspectRatio="xMidYMid meet" version="1.0"><defs><g/><clipPath id="1c0cc54d6f"><path d="M 1 0.269531 L 10 0.269531 L 10 13 L 1 13 Z M 1 0.269531 " clip-rule="nonzero"/></clipPath><clipPath id="a9816f86f2"><path d="M 24 0.269531 L 27 0.269531 L 27 13 L 24 13 Z M 24 0.269531 " clip-rule="nonzero"/></clipPath><clipPath id="9105ee45a0"><path d="M 34 0.269531 L 45 0.269531 L 45 13 L 34 13 Z M 34 0.269531 " clip-rule="nonzero"/></clipPath><clipPath id="25d27187c3"><rect x="0" width="77" y="0" height="17"/></clipPath></defs><g transform="matrix(1, 0, 0, 1, 2, 6)"><g clip-path="url(#25d27187c3)"><g clip-path="url(#1c0cc54d6f)"><g fill="#dfe4f0" fill-opacity="1"><g transform="translate(0.605529, 12.316836)"><g><path d="M 5.203125 0.125 C 4.460938 0.125 3.773438 -0.0078125 3.140625 -0.28125 C 2.503906 -0.5625 1.957031 -0.898438 1.5 -1.296875 C 1.039062 -1.703125 0.703125 -2.09375 0.484375 -2.46875 L 0.875 -3.921875 L 1.015625 -3.921875 C 1.015625 -3.921875 1.078125 -3.789062 1.203125 -3.53125 C 1.335938 -3.269531 1.523438 -2.941406 1.765625 -2.546875 C 2.015625 -2.160156 2.3125 -1.769531 2.65625 -1.375 C 3 -0.976562 3.382812 -0.648438 3.8125 -0.390625 C 4.238281 -0.128906 4.703125 0 5.203125 0 C 5.378906 0 5.609375 -0.03125 5.890625 -0.09375 C 6.179688 -0.164062 6.472656 -0.28125 6.765625 -0.4375 C 7.054688 -0.59375 7.300781 -0.800781 7.5 -1.0625 C 7.695312 -1.332031 7.796875 -1.664062 7.796875 -2.0625 C 7.796875 -2.59375 7.632812 -3.054688 7.3125 -3.453125 C 6.988281 -3.859375 6.582031 -4.207031 6.09375 -4.5 C 5.613281 -4.800781 5.125 -5.039062 4.625 -5.21875 C 4.0625 -5.425781 3.53125 -5.675781 3.03125 -5.96875 C 2.53125 -6.269531 2.125 -6.640625 1.8125 -7.078125 C 1.507812 -7.523438 1.359375 -8.050781 1.359375 -8.65625 C 1.359375 -9.257812 1.503906 -9.78125 1.796875 -10.21875 C 2.097656 -10.664062 2.5 -11.007812 3 -11.25 C 3.507812 -11.5 4.054688 -11.625 4.640625 -11.625 C 5.378906 -11.625 5.988281 -11.523438 6.46875 -11.328125 C 6.957031 -11.128906 7.359375 -10.867188 7.671875 -10.546875 C 7.992188 -10.222656 8.257812 -9.875 8.46875 -9.5 L 8.078125 -8.0625 L 7.921875 -8.0625 C 7.921875 -8.0625 7.882812 -8.175781 7.8125 -8.40625 C 7.75 -8.632812 7.640625 -8.921875 7.484375 -9.265625 C 7.328125 -9.609375 7.117188 -9.945312 6.859375 -10.28125 C 6.609375 -10.613281 6.300781 -10.894531 5.9375 -11.125 C 5.570312 -11.351562 5.140625 -11.46875 4.640625 -11.46875 C 4.460938 -11.46875 4.226562 -11.4375 3.9375 -11.375 C 3.644531 -11.3125 3.351562 -11.195312 3.0625 -11.03125 C 2.769531 -10.875 2.523438 -10.660156 2.328125 -10.390625 C 2.128906 -10.128906 2.03125 -9.800781 2.03125 -9.40625 C 2.03125 -8.882812 2.1875 -8.421875 2.5 -8.015625 C 2.820312 -7.609375 3.226562 -7.257812 3.71875 -6.96875 C 4.21875 -6.6875 4.71875 -6.457031 5.21875 -6.28125 C 5.78125 -6.082031 6.304688 -5.828125 6.796875 -5.515625 C 7.296875 -5.210938 7.703125 -4.84375 8.015625 -4.40625 C 8.328125 -3.976562 8.484375 -3.453125 8.484375 -2.828125 C 8.484375 -2.222656 8.328125 -1.703125 8.015625 -1.265625 C 7.710938 -0.828125 7.3125 -0.484375 6.8125 -0.234375 C 6.320312 0.00390625 5.785156 0.125 5.203125 0.125 Z M 5.203125 0.125 "/></g></g></g></g><g fill="#dfe4f0" fill-opacity="1"><g transform="translate(9.169556, 12.316836)"><g><path d="M 0.40625 -7.765625 L 0.40625 -7.875 C 0.46875 -7.875 0.582031 -7.890625 0.75 -7.921875 C 0.925781 -7.960938 1.109375 -8.050781 1.296875 -8.1875 C 1.484375 -8.332031 1.644531 -8.554688 1.78125 -8.859375 C 1.914062 -9.160156 1.984375 -9.578125 1.984375 -10.109375 L 3.125 -10.109375 C 3.125 -9.460938 2.988281 -8.960938 2.71875 -8.609375 C 2.457031 -8.253906 2.066406 -8.007812 1.546875 -7.875 L 4 -7.875 L 4 -7.765625 L 2.578125 -7.765625 L 2.578125 -3.046875 C 2.578125 -2.847656 2.585938 -2.609375 2.609375 -2.328125 C 2.628906 -2.054688 2.675781 -1.78125 2.75 -1.5 C 2.820312 -1.226562 2.925781 -0.984375 3.0625 -0.765625 C 3.195312 -0.554688 3.378906 -0.414062 3.609375 -0.34375 C 3.929688 -0.25 4.226562 -0.28125 4.5 -0.4375 C 4.769531 -0.59375 5.007812 -0.804688 5.21875 -1.078125 C 5.4375 -1.347656 5.597656 -1.601562 5.703125 -1.84375 C 5.765625 -2 5.828125 -2.160156 5.890625 -2.328125 C 5.960938 -2.492188 6.019531 -2.671875 6.0625 -2.859375 L 6.203125 -2.859375 C 6.148438 -2.660156 6.09375 -2.472656 6.03125 -2.296875 C 5.976562 -2.117188 5.910156 -1.953125 5.828125 -1.796875 C 5.703125 -1.503906 5.53125 -1.210938 5.3125 -0.921875 C 5.101562 -0.628906 4.851562 -0.390625 4.5625 -0.203125 C 4.28125 -0.0234375 3.957031 0.0625 3.59375 0.0625 C 3.007812 0.0625 2.5625 -0.0859375 2.25 -0.390625 C 1.9375 -0.703125 1.722656 -1.097656 1.609375 -1.578125 C 1.492188 -2.054688 1.4375 -2.546875 1.4375 -3.046875 L 1.4375 -6.765625 C 1.4375 -7.035156 1.34375 -7.269531 1.15625 -7.46875 C 0.96875 -7.664062 0.71875 -7.765625 0.40625 -7.765625 Z M 0.40625 -7.765625 "/></g></g></g><g fill="#dfe4f0" fill-opacity="1"><g transform="translate(15.380095, 12.316836)"><g><path d="M 1.96875 0.40625 L 2.0625 0.515625 C 1.945312 0.609375 1.882812 0.707031 1.875 0.8125 C 1.875 0.925781 1.894531 1.023438 1.9375 1.109375 C 2.09375 1.398438 2.269531 1.660156 2.46875 1.890625 C 2.675781 2.117188 2.894531 2.273438 3.125 2.359375 C 3.351562 2.441406 3.578125 2.398438 3.796875 2.234375 C 4.023438 2.078125 4.222656 1.742188 4.390625 1.234375 L 4.859375 0 L 4.8125 0 L 1.734375 -7.09375 C 1.628906 -7.3125 1.535156 -7.472656 1.453125 -7.578125 C 1.367188 -7.679688 1.253906 -7.734375 1.109375 -7.734375 L 1.109375 -7.875 L 3.1875 -7.875 L 3.1875 -7.734375 C 2.882812 -7.734375 2.816406 -7.535156 2.984375 -7.140625 L 5.421875 -1.5 L 7.46875 -6.9375 C 7.5625 -7.1875 7.578125 -7.363281 7.515625 -7.46875 C 7.453125 -7.570312 7.375 -7.640625 7.28125 -7.671875 C 7.1875 -7.710938 7.140625 -7.734375 7.140625 -7.734375 L 7.140625 -7.875 L 8.53125 -7.875 L 8.53125 -7.734375 C 8.34375 -7.734375 8.160156 -7.65625 7.984375 -7.5 C 7.804688 -7.34375 7.671875 -7.140625 7.578125 -6.890625 L 4.515625 1.28125 C 4.078125 2.5 3.492188 3.128906 2.765625 3.171875 C 2.035156 3.222656 1.28125 2.75 0.5 1.75 L 0.40625 1.640625 Z M 1.96875 0.40625 "/></g></g></g><g clip-path="url(#a9816f86f2)"><g fill="#dfe4f0" fill-opacity="1"><g transform="translate(23.911435, 12.316836)"><g><path d="M 2.328125 -0.140625 L 2.328125 0 L 0.421875 0 L 0.421875 -0.140625 C 0.472656 -0.140625 0.546875 -0.21875 0.640625 -0.375 C 0.742188 -0.53125 0.796875 -0.875 0.796875 -1.40625 L 0.796875 -10.390625 C 0.753906 -10.671875 0.695312 -10.851562 0.625 -10.9375 C 0.550781 -11.03125 0.492188 -11.078125 0.453125 -11.078125 L 0.40625 -11.234375 L 1.9375 -11.796875 L 1.9375 -1.40625 C 1.9375 -0.875 1.988281 -0.53125 2.09375 -0.375 C 2.195312 -0.21875 2.273438 -0.140625 2.328125 -0.140625 Z M 2.328125 -0.140625 "/></g></g></g></g><g fill="#dfe4f0" fill-opacity="1"><g transform="translate(26.232181, 12.316836)"><g><path d="M 0.5625 -2.890625 C 0.375 -3.597656 0.375 -4.289062 0.5625 -4.96875 C 0.75 -5.644531 1.085938 -6.234375 1.578125 -6.734375 C 2.078125 -7.242188 2.679688 -7.59375 3.390625 -7.78125 C 4.140625 -7.988281 4.84375 -7.992188 5.5 -7.796875 C 6.164062 -7.597656 6.734375 -7.269531 7.203125 -6.8125 C 7.679688 -6.363281 8.007812 -5.851562 8.1875 -5.28125 C 7.789062 -5.28125 7.367188 -5.265625 6.921875 -5.234375 C 6.472656 -5.203125 6.0625 -5.140625 5.6875 -5.046875 C 6.101562 -5.054688 6.460938 -4.960938 6.765625 -4.765625 C 7.078125 -4.578125 7.328125 -4.316406 7.515625 -3.984375 C 7.703125 -3.660156 7.804688 -3.304688 7.828125 -2.921875 C 7.867188 -2.335938 7.75 -1.828125 7.46875 -1.390625 C 7.1875 -0.960938 6.800781 -0.625 6.3125 -0.375 C 5.832031 -0.132812 5.300781 0 4.71875 0.03125 C 4.144531 0.0703125 3.570312 0 3 -0.1875 C 2.4375 -0.382812 1.9375 -0.703125 1.5 -1.140625 C 1.0625 -1.585938 0.75 -2.171875 0.5625 -2.890625 Z M 1.515625 -4.0625 C 1.546875 -3.757812 1.597656 -3.46875 1.671875 -3.1875 C 1.890625 -2.40625 2.203125 -1.789062 2.609375 -1.34375 C 3.023438 -0.894531 3.484375 -0.59375 3.984375 -0.4375 C 4.484375 -0.28125 4.984375 -0.242188 5.484375 -0.328125 C 5.984375 -0.410156 6.421875 -0.59375 6.796875 -0.875 C 7.179688 -1.164062 7.453125 -1.53125 7.609375 -1.96875 C 7.773438 -2.40625 7.773438 -2.898438 7.609375 -3.453125 C 7.492188 -3.847656 7.28125 -4.179688 6.96875 -4.453125 C 6.664062 -4.734375 6.289062 -4.890625 5.84375 -4.921875 C 5.40625 -4.960938 4.910156 -4.828125 4.359375 -4.515625 C 3.972656 -4.285156 3.585938 -4.125 3.203125 -4.03125 C 2.828125 -3.9375 2.484375 -3.898438 2.171875 -3.921875 C 2.066406 -3.929688 1.957031 -3.945312 1.84375 -3.96875 C 1.726562 -3.988281 1.617188 -4.019531 1.515625 -4.0625 Z M 6.9375 -5.359375 C 6.726562 -5.828125 6.445312 -6.257812 6.09375 -6.65625 C 5.75 -7.0625 5.347656 -7.363281 4.890625 -7.5625 C 4.441406 -7.769531 3.953125 -7.804688 3.421875 -7.671875 C 2.929688 -7.535156 2.539062 -7.285156 2.25 -6.921875 C 1.957031 -6.554688 1.753906 -6.128906 1.640625 -5.640625 C 1.535156 -5.160156 1.492188 -4.679688 1.515625 -4.203125 C 1.703125 -4.109375 1.921875 -4.050781 2.171875 -4.03125 C 2.472656 -4.019531 2.804688 -4.054688 3.171875 -4.140625 C 3.535156 -4.234375 3.910156 -4.390625 4.296875 -4.609375 C 4.742188 -4.867188 5.203125 -5.050781 5.671875 -5.15625 C 6.140625 -5.269531 6.5625 -5.335938 6.9375 -5.359375 Z M 6.9375 -5.359375 "/></g></g></g><g clip-path="url(#9105ee45a0)"><g fill="#dfe4f0" fill-opacity="1"><g transform="translate(34.420302, 12.316836)"><g><path d="M 0.484375 -11.328125 L 0.484375 -11.46875 L 2.03125 -11.46875 L 2.03125 -9.734375 C 2.207031 -10.296875 2.535156 -10.726562 3.015625 -11.03125 C 3.503906 -11.34375 4.0625 -11.53125 4.6875 -11.59375 C 5.320312 -11.664062 5.96875 -11.597656 6.625 -11.390625 C 7.28125 -11.191406 7.894531 -10.851562 8.46875 -10.375 C 9.039062 -9.90625 9.503906 -9.285156 9.859375 -8.515625 C 10.210938 -7.742188 10.390625 -6.816406 10.390625 -5.734375 C 10.390625 -4.679688 10.21875 -3.773438 9.875 -3.015625 C 9.53125 -2.265625 9.050781 -1.65625 8.4375 -1.1875 C 7.820312 -0.71875 7.101562 -0.367188 6.28125 -0.140625 C 5.457031 0.078125 4.5625 0.1875 3.59375 0.1875 C 3.125 0.1875 2.632812 0.15625 2.125 0.09375 C 1.613281 0.0390625 1.117188 0.0078125 0.640625 0 L 0.484375 0 L 0.484375 -0.140625 C 0.546875 -0.140625 0.625 -0.21875 0.71875 -0.375 C 0.8125 -0.53125 0.859375 -0.875 0.859375 -1.40625 L 0.859375 -10.0625 C 0.859375 -10.613281 0.8125 -10.960938 0.71875 -11.109375 C 0.625 -11.253906 0.546875 -11.328125 0.484375 -11.328125 Z M 9.25 -5.734375 C 9.25 -6.703125 9.117188 -7.535156 8.859375 -8.234375 C 8.597656 -8.941406 8.25 -9.523438 7.8125 -9.984375 C 7.382812 -10.441406 6.914062 -10.78125 6.40625 -11 C 5.894531 -11.226562 5.382812 -11.347656 4.875 -11.359375 C 4.363281 -11.367188 3.890625 -11.273438 3.453125 -11.078125 C 3.023438 -10.878906 2.679688 -10.59375 2.421875 -10.21875 C 2.160156 -9.84375 2.03125 -9.378906 2.03125 -8.828125 L 2.03125 -0.0625 C 2.300781 -0.0390625 2.566406 -0.0195312 2.828125 0 C 3.085938 0.0195312 3.34375 0.03125 3.59375 0.03125 C 4.78125 0.03125 5.796875 -0.195312 6.640625 -0.65625 C 7.484375 -1.125 8.128906 -1.789062 8.578125 -2.65625 C 9.023438 -3.519531 9.25 -4.546875 9.25 -5.734375 Z M 9.25 -5.734375 "/></g></g></g></g><g fill="#dfe4f0" fill-opacity="1"><g transform="translate(44.896537, 12.316836)"><g><path d="M 0.5625 -2.890625 C 0.375 -3.597656 0.375 -4.289062 0.5625 -4.96875 C 0.75 -5.644531 1.085938 -6.234375 1.578125 -6.734375 C 2.078125 -7.242188 2.679688 -7.59375 3.390625 -7.78125 C 4.140625 -7.988281 4.84375 -7.992188 5.5 -7.796875 C 6.164062 -7.597656 6.734375 -7.269531 7.203125 -6.8125 C 7.679688 -6.363281 8.007812 -5.851562 8.1875 -5.28125 C 7.789062 -5.28125 7.367188 -5.265625 6.921875 -5.234375 C 6.472656 -5.203125 6.0625 -5.140625 5.6875 -5.046875 C 6.101562 -5.054688 6.460938 -4.960938 6.765625 -4.765625 C 7.078125 -4.578125 7.328125 -4.316406 7.515625 -3.984375 C 7.703125 -3.660156 7.804688 -3.304688 7.828125 -2.921875 C 7.867188 -2.335938 7.75 -1.828125 7.46875 -1.390625 C 7.1875 -0.960938 6.800781 -0.625 6.3125 -0.375 C 5.832031 -0.132812 5.300781 0 4.71875 0.03125 C 4.144531 0.0703125 3.570312 0 3 -0.1875 C 2.4375 -0.382812 1.9375 -0.703125 1.5 -1.140625 C 1.0625 -1.585938 0.75 -2.171875 0.5625 -2.890625 Z M 1.515625 -4.0625 C 1.546875 -3.757812 1.597656 -3.46875 1.671875 -3.1875 C 1.890625 -2.40625 2.203125 -1.789062 2.609375 -1.34375 C 3.023438 -0.894531 3.484375 -0.59375 3.984375 -0.4375 C 4.484375 -0.28125 4.984375 -0.242188 5.484375 -0.328125 C 5.984375 -0.410156 6.421875 -0.59375 6.796875 -0.875 C 7.179688 -1.164062 7.453125 -1.53125 7.609375 -1.96875 C 7.773438 -2.40625 7.773438 -2.898438 7.609375 -3.453125 C 7.492188 -3.847656 7.28125 -4.179688 6.96875 -4.453125 C 6.664062 -4.734375 6.289062 -4.890625 5.84375 -4.921875 C 5.40625 -4.960938 4.910156 -4.828125 4.359375 -4.515625 C 3.972656 -4.285156 3.585938 -4.125 3.203125 -4.03125 C 2.828125 -3.9375 2.484375 -3.898438 2.171875 -3.921875 C 2.066406 -3.929688 1.957031 -3.945312 1.84375 -3.96875 C 1.726562 -3.988281 1.617188 -4.019531 1.515625 -4.0625 Z M 6.9375 -5.359375 C 6.726562 -5.828125 6.445312 -6.257812 6.09375 -6.65625 C 5.75 -7.0625 5.347656 -7.363281 4.890625 -7.5625 C 4.441406 -7.769531 3.953125 -7.804688 3.421875 -7.671875 C 2.929688 -7.535156 2.539062 -7.285156 2.25 -6.921875 C 1.957031 -6.554688 1.753906 -6.128906 1.640625 -5.640625 C 1.535156 -5.160156 1.492188 -4.679688 1.515625 -4.203125 C 1.703125 -4.109375 1.921875 -4.050781 2.171875 -4.03125 C 2.472656 -4.019531 2.804688 -4.054688 3.171875 -4.140625 C 3.535156 -4.234375 3.910156 -4.390625 4.296875 -4.609375 C 4.742188 -4.867188 5.203125 -5.050781 5.671875 -5.15625 C 6.140625 -5.269531 6.5625 -5.335938 6.9375 -5.359375 Z M 6.9375 -5.359375 "/></g></g></g><g fill="#dfe4f0" fill-opacity="1"><g transform="translate(53.084658, 12.316836)"><g><path d="M 7.390625 -5.5625 C 7.171875 -6.070312 6.851562 -6.519531 6.4375 -6.90625 C 6.03125 -7.289062 5.566406 -7.554688 5.046875 -7.703125 C 4.535156 -7.859375 3.992188 -7.847656 3.421875 -7.671875 C 2.960938 -7.546875 2.585938 -7.316406 2.296875 -6.984375 C 2.015625 -6.660156 1.8125 -6.28125 1.6875 -5.84375 C 1.5625 -5.40625 1.5 -4.953125 1.5 -4.484375 C 1.507812 -4.023438 1.566406 -3.59375 1.671875 -3.1875 L 1.71875 -3.046875 C 1.945312 -2.253906 2.28125 -1.644531 2.71875 -1.21875 C 3.164062 -0.789062 3.648438 -0.507812 4.171875 -0.375 C 4.691406 -0.25 5.195312 -0.242188 5.6875 -0.359375 C 6.1875 -0.484375 6.613281 -0.707031 6.96875 -1.03125 C 7.332031 -1.351562 7.570312 -1.75 7.6875 -2.21875 L 7.796875 -2.21875 C 7.703125 -1.726562 7.484375 -1.3125 7.140625 -0.96875 C 6.804688 -0.625 6.394531 -0.363281 5.90625 -0.1875 C 5.425781 -0.0195312 4.910156 0.0546875 4.359375 0.046875 C 3.816406 0.0351562 3.289062 -0.0703125 2.78125 -0.28125 C 2.269531 -0.488281 1.816406 -0.804688 1.421875 -1.234375 C 1.023438 -1.671875 0.738281 -2.222656 0.5625 -2.890625 C 0.375 -3.597656 0.375 -4.289062 0.5625 -4.96875 C 0.75 -5.644531 1.09375 -6.234375 1.59375 -6.734375 C 2.09375 -7.242188 2.695312 -7.59375 3.40625 -7.78125 C 3.90625 -7.90625 4.390625 -7.953125 4.859375 -7.921875 C 5.335938 -7.890625 5.769531 -7.8125 6.15625 -7.6875 C 6.550781 -7.5625 6.882812 -7.429688 7.15625 -7.296875 C 7.425781 -7.171875 7.609375 -7.082031 7.703125 -7.03125 L 7.765625 -7.03125 L 7.53125 -5.53125 Z M 7.390625 -5.5625 "/></g></g></g><g fill="#dfe4f0" fill-opacity="1"><g transform="translate(60.880532, 12.316836)"><g><path d="M 0.5625 -2.984375 C 0.375 -3.691406 0.375 -4.382812 0.5625 -5.0625 C 0.75 -5.738281 1.085938 -6.328125 1.578125 -6.828125 C 2.078125 -7.335938 2.679688 -7.6875 3.390625 -7.875 C 4.109375 -8.070312 4.800781 -8.070312 5.46875 -7.875 C 6.144531 -7.6875 6.738281 -7.347656 7.25 -6.859375 C 7.757812 -6.367188 8.101562 -5.765625 8.28125 -5.046875 C 8.476562 -4.335938 8.476562 -3.644531 8.28125 -2.96875 C 8.082031 -2.300781 7.738281 -1.710938 7.25 -1.203125 C 6.757812 -0.703125 6.160156 -0.351562 5.453125 -0.15625 C 4.742188 0.0195312 4.050781 0.0195312 3.375 -0.15625 C 2.695312 -0.34375 2.101562 -0.679688 1.59375 -1.171875 C 1.09375 -1.671875 0.75 -2.273438 0.5625 -2.984375 Z M 7.171875 -4.75 C 7.066406 -5.144531 6.898438 -5.546875 6.671875 -5.953125 C 6.441406 -6.359375 6.160156 -6.71875 5.828125 -7.03125 C 5.492188 -7.351562 5.125 -7.582031 4.71875 -7.71875 C 4.3125 -7.863281 3.878906 -7.878906 3.421875 -7.765625 C 2.960938 -7.640625 2.59375 -7.410156 2.3125 -7.078125 C 2.03125 -6.753906 1.820312 -6.375 1.6875 -5.9375 C 1.5625 -5.5 1.5 -5.046875 1.5 -4.578125 C 1.5 -4.109375 1.554688 -3.675781 1.671875 -3.28125 C 1.773438 -2.894531 1.941406 -2.492188 2.171875 -2.078125 C 2.398438 -1.671875 2.679688 -1.304688 3.015625 -0.984375 C 3.347656 -0.671875 3.71875 -0.441406 4.125 -0.296875 C 4.53125 -0.148438 4.960938 -0.144531 5.421875 -0.28125 C 5.878906 -0.394531 6.25 -0.617188 6.53125 -0.953125 C 6.820312 -1.285156 7.03125 -1.671875 7.15625 -2.109375 C 7.28125 -2.546875 7.34375 -3 7.34375 -3.46875 C 7.34375 -3.9375 7.285156 -4.363281 7.171875 -4.75 Z M 7.171875 -4.75 "/></g></g></g><g fill="#dfe4f0" fill-opacity="1"><g transform="translate(69.313809, 12.316836)"><g><path d="M 6.296875 -6.3125 C 6.378906 -5.894531 6.488281 -5.703125 6.625 -5.734375 L 6.671875 -5.609375 L 5.78125 -5.265625 L 5.734375 -5.25 L 4.890625 -4.921875 L 4.890625 -5.0625 C 5.003906 -5.144531 5.082031 -5.269531 5.125 -5.4375 C 5.175781 -5.601562 5.203125 -5.765625 5.203125 -5.921875 C 5.148438 -6.285156 5.054688 -6.632812 4.921875 -6.96875 C 4.785156 -7.300781 4.539062 -7.488281 4.1875 -7.53125 C 3.582031 -7.625 3.117188 -7.566406 2.796875 -7.359375 C 2.484375 -7.148438 2.265625 -6.859375 2.140625 -6.484375 C 2.023438 -6.117188 1.953125 -5.734375 1.921875 -5.328125 L 1.921875 -1.40625 C 1.921875 -0.875 1.972656 -0.53125 2.078125 -0.375 C 2.179688 -0.21875 2.253906 -0.140625 2.296875 -0.140625 L 2.296875 0 L 0.40625 0 L 0.40625 -0.140625 C 0.457031 -0.140625 0.535156 -0.21875 0.640625 -0.375 C 0.742188 -0.53125 0.796875 -0.875 0.796875 -1.40625 L 0.796875 -6.46875 C 0.796875 -7.019531 0.742188 -7.367188 0.640625 -7.515625 C 0.535156 -7.660156 0.457031 -7.734375 0.40625 -7.734375 L 0.40625 -7.875 L 1.921875 -7.875 L 1.921875 -6.328125 C 2.046875 -6.796875 2.273438 -7.179688 2.609375 -7.484375 C 2.953125 -7.785156 3.488281 -7.9375 4.21875 -7.9375 C 4.832031 -7.9375 5.304688 -7.785156 5.640625 -7.484375 C 5.972656 -7.179688 6.191406 -6.789062 6.296875 -6.3125 Z M 6.296875 -6.3125 "/></g></g></g></g></g></svg>